solid OpenSCAD_Model
  facet normal 3.33174e-06 0.70711 0.707104
    outer loop
      vertex 10.4431 10.4431 0
      vertex 1 9.84315 0.6
      vertex 6.84315 6.84315 3.6
    endloop
  endfacet
  facet normal 0 0.707136 0.707077
    outer loop
      vertex 10.4431 10.4431 0
      vertex -1 9.84315 0.6
      vertex 1 9.84315 0.6
    endloop
  endfacet
  facet normal 0 0.707107 0.707107
    outer loop
      vertex -1 9.84315 0.6
      vertex -6.84315 6.84315 3.6
      vertex -1 6.84315 3.6
    endloop
  endfacet
  facet normal -3.33174e-06 0.70711 0.707104
    outer loop
      vertex -1 9.84315 0.6
      vertex -10.4431 10.4431 0
      vertex -6.84315 6.84315 3.6
    endloop
  endfacet
  facet normal -0 0.707136 0.707077
    outer loop
      vertex -10.4431 10.4431 0
      vertex -1 9.84315 0.6
      vertex 10.4431 10.4431 0
    endloop
  endfacet
  facet normal 0 0.707107 0.707107
    outer loop
      vertex 6.84315 6.84315 3.6
      vertex 1 9.84315 0.6
      vertex 1 6.84315 3.6
    endloop
  endfacet
  facet normal -0.707112 0 0.707102
    outer loop
      vertex -10.4431 -5.7 0
      vertex -7.74314 -0.299999 2.7
      vertex -10.4431 1.7 0
    endloop
  endfacet
  facet normal -0.707127 1.51439e-05 0.707086
    outer loop
      vertex -7.74314 -0.299999 2.7
      vertex -10.4431 -5.7 0
      vertex -9.59315 -5.7 0.849999
    endloop
  endfacet
  facet normal -0.707107 -1.47314e-07 0.707106
    outer loop
      vertex -9.84315 4.5 0.599999
      vertex -9.59315 3.3 0.849999
      vertex -8.84315 4.5 1.6
    endloop
  endfacet
  facet normal -0.707127 -8.49247e-06 0.707086
    outer loop
      vertex -9.84315 4.5 0.599999
      vertex -10.4431 3.3 0
      vertex -9.59315 3.3 0.849999
    endloop
  endfacet
  facet normal -0.707136 0 0.707078
    outer loop
      vertex -9.84315 7.5 0.599999
      vertex -10.4431 3.3 0
      vertex -9.84315 4.5 0.599999
    endloop
  endfacet
  facet normal -0.707107 0 0.707107
    outer loop
      vertex -8.84315 4.5 1.6
      vertex -6.84315 0.299999 3.6
      vertex -6.84315 6.84315 3.6
    endloop
  endfacet
  facet normal -0.707107 -2.54813e-07 0.707107
    outer loop
      vertex -9.59315 3.3 0.849999
      vertex -6.84315 0.299999 3.6
      vertex -8.84315 4.5 1.6
    endloop
  endfacet
  facet normal -0.707107 0 0.707107
    outer loop
      vertex -8.84315 4.5 1.6
      vertex -6.84315 6.84315 3.6
      vertex -8.84315 7.5 1.6
    endloop
  endfacet
  facet normal -0.707136 0 0.707078
    outer loop
      vertex -10.4431 3.3 0
      vertex -9.84315 7.5 0.599999
      vertex -10.4431 10.4431 0
    endloop
  endfacet
  facet normal -0.707107 1.16286e-05 0.707106
    outer loop
      vertex -8.84315 7.5 1.6
      vertex -10.4431 10.4431 0
      vertex -9.84315 7.5 0.599999
    endloop
  endfacet
  facet normal -0.707104 1.4624e-05 0.707109
    outer loop
      vertex -10.4431 10.4431 0
      vertex -8.84315 7.5 1.6
      vertex -6.84315 6.84315 3.6
    endloop
  endfacet
  facet normal -0.707111 3.8702e-06 0.707103
    outer loop
      vertex -9.59315 -5.7 0.849999
      vertex -6.84315 -0.299999 3.6
      vertex -7.74314 -0.299999 2.7
    endloop
  endfacet
  facet normal -0.707111 -6.96635e-06 0.707103
    outer loop
      vertex -6.84315 0.299999 3.6
      vertex -9.59315 3.3 0.849999
      vertex -7.74314 0.299999 2.7
    endloop
  endfacet
  facet normal -0.707105 0 0.707109
    outer loop
      vertex -7.74314 0.299999 2.7
      vertex -9.59315 1.7 0.849999
      vertex -7.74314 -0.299999 2.7
    endloop
  endfacet
  facet normal -0.707105 0 0.707109
    outer loop
      vertex -7.74314 0.299999 2.7
      vertex -9.59315 3.3 0.849999
      vertex -9.59315 1.7 0.849999
    endloop
  endfacet
  facet normal -0.707127 -4.08887e-05 0.707086
    outer loop
      vertex -10.4431 1.7 0
      vertex -7.74314 -0.299999 2.7
      vertex -9.59315 1.7 0.849999
    endloop
  endfacet
  facet normal -0.707107 0 0.707107
    outer loop
      vertex -6.84315 -0.299999 3.6
      vertex -9.59315 -5.7 0.849999
      vertex -6.84315 -6.84315 3.6
    endloop
  endfacet
  facet normal -0.707107 0 0.707107
    outer loop
      vertex -9.59315 -7.3 0.849999
      vertex -6.84315 -6.84315 3.6
      vertex -9.59315 -5.7 0.849999
    endloop
  endfacet
  facet normal -0.707106 -1.14693e-05 0.707108
    outer loop
      vertex -9.59315 -7.3 0.849999
      vertex -10.4431 -10.4431 0
      vertex -6.84315 -6.84315 3.6
    endloop
  endfacet
  facet normal -0.707127 0 0.707086
    outer loop
      vertex -10.4431 -10.4431 0
      vertex -9.59315 -7.3 0.849999
      vertex -10.4431 -7.3 0
    endloop
  endfacet
  facet normal 0 -0.707112 0.707102
    outer loop
      vertex -6.84315 -6.84315 3.6
      vertex 10.4431 -10.4431 0
      vertex 6.84315 -6.84315 3.6
    endloop
  endfacet
  facet normal 0 -0.707112 0.707102
    outer loop
      vertex 10.4431 -10.4431 0
      vertex -6.84315 -6.84315 3.6
      vertex -10.4431 -10.4431 0
    endloop
  endfacet
  facet normal 0.707136 0 0.707078
    outer loop
      vertex 10.4431 10.4431 0
      vertex 9.84315 7.5 0.599999
      vertex 10.4431 3.3 0
    endloop
  endfacet
  facet normal 0.707107 1.16286e-05 0.707106
    outer loop
      vertex 10.4431 10.4431 0
      vertex 8.84315 7.5 1.6
      vertex 9.84315 7.5 0.599999
    endloop
  endfacet
  facet normal 0.707107 0 0.707107
    outer loop
      vertex 6.84315 6.84315 3.6
      vertex 8.84315 4.5 1.6
      vertex 8.84315 7.5 1.6
    endloop
  endfacet
  facet normal 0.707104 1.4624e-05 0.707109
    outer loop
      vertex 6.84315 6.84315 3.6
      vertex 8.84315 7.5 1.6
      vertex 10.4431 10.4431 0
    endloop
  endfacet
  facet normal 0.707107 -0 0.707107
    outer loop
      vertex 6.84315 0.299999 3.6
      vertex 8.84315 4.5 1.6
      vertex 6.84315 6.84315 3.6
    endloop
  endfacet
  facet normal 0.707111 -3.74133e-06 0.707103
    outer loop
      vertex 8.84315 4.5 1.6
      vertex 6.84315 0.299999 3.6
      vertex 7.74314 0.299999 2.7
    endloop
  endfacet
  facet normal 0.707136 -0 0.707078
    outer loop
      vertex 9.84315 4.5 0.599999
      vertex 10.4431 3.3 0
      vertex 9.84315 7.5 0.599999
    endloop
  endfacet
  facet normal 0.707127 -8.49247e-06 0.707086
    outer loop
      vertex 9.84315 4.5 0.599999
      vertex 9.59315 3.3 0.849999
      vertex 10.4431 3.3 0
    endloop
  endfacet
  facet normal 0.707105 0 0.707109
    outer loop
      vertex 7.74314 0.299999 2.7
      vertex 9.59315 1.7 0.849999
      vertex 9.59315 3.3 0.849999
    endloop
  endfacet
  facet normal 0.707105 0 0.707109
    outer loop
      vertex 9.59315 1.7 0.849999
      vertex 7.74314 -0.299999 2.7
      vertex 9.59315 -5.7 0.849999
    endloop
  endfacet
  facet normal 0.707106 -1.36043e-06 0.707107
    outer loop
      vertex 7.74314 0.299999 2.7
      vertex 9.59315 3.3 0.849999
      vertex 8.84315 4.5 1.6
    endloop
  endfacet
  facet normal 0.707107 -1.47314e-07 0.707106
    outer loop
      vertex 8.84315 4.5 1.6
      vertex 9.59315 3.3 0.849999
      vertex 9.84315 4.5 0.599999
    endloop
  endfacet
  facet normal 0.707127 0 0.707086
    outer loop
      vertex 9.59315 1.7 0.849999
      vertex 10.4431 -5.7 0
      vertex 10.4431 1.7 0
    endloop
  endfacet
  facet normal 0.707127 0 0.707086
    outer loop
      vertex 10.4431 -5.7 0
      vertex 9.59315 1.7 0.849999
      vertex 9.59315 -5.7 0.849999
    endloop
  endfacet
  facet normal 0.707127 0 0.707086
    outer loop
      vertex 9.59315 -7.3 0.849999
      vertex 10.4431 -10.4431 0
      vertex 10.4431 -7.3 0
    endloop
  endfacet
  facet normal 0.707105 0 0.707109
    outer loop
      vertex 9.59315 1.7 0.849999
      vertex 7.74314 0.299999 2.7
      vertex 7.74314 -0.299999 2.7
    endloop
  endfacet
  facet normal 0.707111 3.8702e-06 0.707103
    outer loop
      vertex 6.84315 -0.299999 3.6
      vertex 9.59315 -5.7 0.849999
      vertex 7.74314 -0.299999 2.7
    endloop
  endfacet
  facet normal 0.707107 0 0.707107
    outer loop
      vertex 9.59315 -5.7 0.849999
      vertex 6.84315 -0.299999 3.6
      vertex 6.84315 -6.84315 3.6
    endloop
  endfacet
  facet normal 0.707107 0 0.707107
    outer loop
      vertex 9.59315 -5.7 0.849999
      vertex 6.84315 -6.84315 3.6
      vertex 9.59315 -7.3 0.849999
    endloop
  endfacet
  facet normal 0.707106 -1.14693e-05 0.707108
    outer loop
      vertex 9.59315 -7.3 0.849999
      vertex 6.84315 -6.84315 3.6
      vertex 10.4431 -10.4431 0
    endloop
  endfacet
  facet normal 0 0 -1
    outer loop
      vertex -9.59315 -7.3 0.849999
      vertex 9.59315 -5.7 0.849999
      vertex 9.59315 -7.3 0.849999
    endloop
  endfacet
  facet normal -0 0 -1
    outer loop
      vertex 9.59315 -5.7 0.849999
      vertex -9.59315 -7.3 0.849999
      vertex -9.59315 -5.7 0.849999
    endloop
  endfacet
  facet normal 0 -1 0
    outer loop
      vertex -10.4431 -5.7 0
      vertex 9.59315 -5.7 0.849999
      vertex -9.59315 -5.7 0.849999
    endloop
  endfacet
  facet normal 0 -1 -0
    outer loop
      vertex 9.59315 -5.7 0.849999
      vertex -10.4431 -5.7 0
      vertex 10.4431 -5.7 0
    endloop
  endfacet
  facet normal 0 1 0
    outer loop
      vertex 10.4431 -7.3 0
      vertex -9.59315 -7.3 0.849999
      vertex 9.59315 -7.3 0.849999
    endloop
  endfacet
  facet normal 0 1 0
    outer loop
      vertex -9.59315 -7.3 0.849999
      vertex 10.4431 -7.3 0
      vertex -10.4431 -7.3 0
    endloop
  endfacet
  facet normal 0 0 -1
    outer loop
      vertex -9.59315 1.7 0.849999
      vertex -1 3.3 0.849999
      vertex -1 1.7 0.849999
    endloop
  endfacet
  facet normal -0 0 -1
    outer loop
      vertex -1 3.3 0.849999
      vertex -9.59315 1.7 0.849999
      vertex -9.59315 3.3 0.849999
    endloop
  endfacet
  facet normal 0 0 -1
    outer loop
      vertex 1 1.7 0.849999
      vertex 9.59315 3.3 0.849999
      vertex 9.59315 1.7 0.849999
    endloop
  endfacet
  facet normal -0 0 -1
    outer loop
      vertex 9.59315 3.3 0.849999
      vertex 1 1.7 0.849999
      vertex 1 3.3 0.849999
    endloop
  endfacet
  facet normal 0 1 0
    outer loop
      vertex 9.59315 1.7 0.849999
      vertex 1 1.7 0.6
      vertex 1 1.7 0.849999
    endloop
  endfacet
  facet normal 0 1 0
    outer loop
      vertex 1 1.7 0.6
      vertex 10.4431 1.7 0
      vertex -1 1.7 0.6
    endloop
  endfacet
  facet normal 0 1 0
    outer loop
      vertex 10.4431 1.7 0
      vertex 1 1.7 0.6
      vertex 9.59315 1.7 0.849999
    endloop
  endfacet
  facet normal 0 1 -0
    outer loop
      vertex -1 1.7 0.6
      vertex -9.59315 1.7 0.849999
      vertex -1 1.7 0.849999
    endloop
  endfacet
  facet normal 0 1 0
    outer loop
      vertex -10.4431 1.7 0
      vertex -1 1.7 0.6
      vertex 10.4431 1.7 0
    endloop
  endfacet
  facet normal 0 1 0
    outer loop
      vertex -1 1.7 0.6
      vertex -10.4431 1.7 0
      vertex -9.59315 1.7 0.849999
    endloop
  endfacet
  facet normal 0 -1 0
    outer loop
      vertex -9.59315 3.3 0.849999
      vertex -1 3.3 0.6
      vertex -1 3.3 0.849999
    endloop
  endfacet
  facet normal 0 -1 -0
    outer loop
      vertex -1 3.3 0.6
      vertex -10.4431 3.3 0
      vertex 1 3.3 0.6
    endloop
  endfacet
  facet normal 0 -1 0
    outer loop
      vertex -10.4431 3.3 0
      vertex -1 3.3 0.6
      vertex -9.59315 3.3 0.849999
    endloop
  endfacet
  facet normal 0 -1 0
    outer loop
      vertex 1 3.3 0.6
      vertex 9.59315 3.3 0.849999
      vertex 1 3.3 0.849999
    endloop
  endfacet
  facet normal 0 -1 0
    outer loop
      vertex 10.4431 3.3 0
      vertex 1 3.3 0.6
      vertex -10.4431 3.3 0
    endloop
  endfacet
  facet normal 0 -1 0
    outer loop
      vertex 1 3.3 0.6
      vertex 10.4431 3.3 0
      vertex 9.59315 3.3 0.849999
    endloop
  endfacet
  facet normal 1 0 0
    outer loop
      vertex -3.75 -0.299999 3.6
      vertex -3.75 -1.1 3.6
      vertex -3.75 -0.299999 2.7
    endloop
  endfacet
  facet normal 1 0 0
    outer loop
      vertex -3.75 0.299999 2.7
      vertex -3.75 1.1 3.6
      vertex -3.75 0.299999 3.6
    endloop
  endfacet
  facet normal 1 0 0
    outer loop
      vertex -3.75 1.1 3.6
      vertex -3.75 0.299999 2.7
      vertex -3.75 1.1 0.300001
    endloop
  endfacet
  facet normal 1 -0 0
    outer loop
      vertex -3.75 -0.299999 2.7
      vertex -3.75 1.1 0.300001
      vertex -3.75 0.299999 2.7
    endloop
  endfacet
  facet normal 1 0 0
    outer loop
      vertex -3.75 -1.1 0.300001
      vertex -3.75 -0.299999 2.7
      vertex -3.75 -1.1 3.6
    endloop
  endfacet
  facet normal 1 0 0
    outer loop
      vertex -3.75 -0.299999 2.7
      vertex -3.75 -1.1 0.300001
      vertex -3.75 1.1 0.300001
    endloop
  endfacet
  facet normal -1 0 0
    outer loop
      vertex 3.75 1.1 0.300001
      vertex 3.75 0.299999 2.7
      vertex 3.75 1.1 3.6
    endloop
  endfacet
  facet normal -1 0 0
    outer loop
      vertex 3.75 1.1 0.300001
      vertex 3.75 -0.299999 2.7
      vertex 3.75 0.299999 2.7
    endloop
  endfacet
  facet normal -1 0 0
    outer loop
      vertex 3.75 -1.1 0.300001
      vertex 3.75 -0.299999 2.7
      vertex 3.75 1.1 0.300001
    endloop
  endfacet
  facet normal -1 0 0
    outer loop
      vertex 3.75 -1.1 3.6
      vertex 3.75 -0.299999 2.7
      vertex 3.75 -1.1 0.300001
    endloop
  endfacet
  facet normal -1 0 0
    outer loop
      vertex 3.75 -0.299999 2.7
      vertex 3.75 -1.1 3.6
      vertex 3.75 -0.299999 3.6
    endloop
  endfacet
  facet normal -1 -0 0
    outer loop
      vertex 3.75 1.1 3.6
      vertex 3.75 0.299999 2.7
      vertex 3.75 0.299999 3.6
    endloop
  endfacet
  facet normal 0 -1 0
    outer loop
      vertex 3.75 0.299999 2.7
      vertex 6.84315 0.299999 3.6
      vertex 3.75 0.299999 3.6
    endloop
  endfacet
  facet normal 0 -1 -0
    outer loop
      vertex 6.84315 0.299999 3.6
      vertex 3.75 0.299999 2.7
      vertex 7.74314 0.299999 2.7
    endloop
  endfacet
  facet normal 0 -1 0
    outer loop
      vertex -3.75 0.299999 2.7
      vertex -6.84315 0.299999 3.6
      vertex -7.74314 0.299999 2.7
    endloop
  endfacet
  facet normal 0 -1 0
    outer loop
      vertex -6.84315 0.299999 3.6
      vertex -3.75 0.299999 2.7
      vertex -3.75 0.299999 3.6
    endloop
  endfacet
  facet normal -0 0 1
    outer loop
      vertex -7.74314 0.299999 2.7
      vertex -3.75 -0.299999 2.7
      vertex -3.75 0.299999 2.7
    endloop
  endfacet
  facet normal 0 0 1
    outer loop
      vertex -3.75 -0.299999 2.7
      vertex -7.74314 0.299999 2.7
      vertex -7.74314 -0.299999 2.7
    endloop
  endfacet
  facet normal -0 0 1
    outer loop
      vertex 3.75 0.299999 2.7
      vertex 7.74314 -0.299999 2.7
      vertex 7.74314 0.299999 2.7
    endloop
  endfacet
  facet normal 0 0 1
    outer loop
      vertex 7.74314 -0.299999 2.7
      vertex 3.75 0.299999 2.7
      vertex 3.75 -0.299999 2.7
    endloop
  endfacet
  facet normal 0 1 0
    outer loop
      vertex 3.75 -0.299999 2.7
      vertex 6.84315 -0.299999 3.6
      vertex 7.74314 -0.299999 2.7
    endloop
  endfacet
  facet normal 0 1 0
    outer loop
      vertex 6.84315 -0.299999 3.6
      vertex 3.75 -0.299999 2.7
      vertex 3.75 -0.299999 3.6
    endloop
  endfacet
  facet normal 0 1 -0
    outer loop
      vertex -3.75 -0.299999 2.7
      vertex -6.84315 -0.299999 3.6
      vertex -3.75 -0.299999 3.6
    endloop
  endfacet
  facet normal 0 1 0
    outer loop
      vertex -6.84315 -0.299999 3.6
      vertex -3.75 -0.299999 2.7
      vertex -7.74314 -0.299999 2.7
    endloop
  endfacet
  facet normal 0 -1 0
    outer loop
      vertex -3.75 1.1 3.6
      vertex -1 1.1 0.6
      vertex -1 1.1 3.6
    endloop
  endfacet
  facet normal 0 -1 -0
    outer loop
      vertex -1 1.1 0.6
      vertex -3.75 1.1 0.300001
      vertex 1 1.1 0.6
    endloop
  endfacet
  facet normal 0 -1 0
    outer loop
      vertex -3.75 1.1 0.300001
      vertex -1 1.1 0.6
      vertex -3.75 1.1 3.6
    endloop
  endfacet
  facet normal 0 -1 0
    outer loop
      vertex 1 1.1 0.6
      vertex 3.75 1.1 3.6
      vertex 1 1.1 3.6
    endloop
  endfacet
  facet normal 0 -1 0
    outer loop
      vertex 1 1.1 0.6
      vertex 3.75 1.1 0.300001
      vertex 3.75 1.1 3.6
    endloop
  endfacet
  facet normal 0 -1 0
    outer loop
      vertex 3.75 1.1 0.300001
      vertex 1 1.1 0.6
      vertex -3.75 1.1 0.300001
    endloop
  endfacet
  facet normal -0 0 1
    outer loop
      vertex -3.75 1.1 0.300001
      vertex 3.75 -1.1 0.300001
      vertex 3.75 1.1 0.300001
    endloop
  endfacet
  facet normal 0 0 1
    outer loop
      vertex 3.75 -1.1 0.300001
      vertex -3.75 1.1 0.300001
      vertex -3.75 -1.1 0.300001
    endloop
  endfacet
  facet normal 0 1 -0
    outer loop
      vertex 3.75 -1.1 0.300001
      vertex -3.75 -1.1 3.6
      vertex 3.75 -1.1 3.6
    endloop
  endfacet
  facet normal 0 1 0
    outer loop
      vertex -3.75 -1.1 3.6
      vertex 3.75 -1.1 0.300001
      vertex -3.75 -1.1 0.300001
    endloop
  endfacet
  facet normal 1 0 0
    outer loop
      vertex -1 6.84315 3.6
      vertex -1 7.5 1.6
      vertex -1 9.84315 0.6
    endloop
  endfacet
  facet normal 1 0 0
    outer loop
      vertex -1 6.84315 3.6
      vertex -1 4.5 1.6
      vertex -1 7.5 1.6
    endloop
  endfacet
  facet normal 1 0 0
    outer loop
      vertex -1 4.5 1.6
      vertex -1 3.3 0.849999
      vertex -1 4.5 0.6
    endloop
  endfacet
  facet normal 1 -0 0
    outer loop
      vertex -1 1.1 3.6
      vertex -1 4.5 1.6
      vertex -1 6.84315 3.6
    endloop
  endfacet
  facet normal 1 0 0
    outer loop
      vertex -1 4.5 1.6
      vertex -1 1.1 3.6
      vertex -1 3.3 0.849999
    endloop
  endfacet
  facet normal 1 0 0
    outer loop
      vertex -1 3.3 0.849999
      vertex -1 1.1 3.6
      vertex -1 1.7 0.849999
    endloop
  endfacet
  facet normal 1 0 0
    outer loop
      vertex -1 1.1 0.6
      vertex -1 1.7 0.849999
      vertex -1 1.1 3.6
    endloop
  endfacet
  facet normal 1 0 0
    outer loop
      vertex -1 1.7 0.849999
      vertex -1 1.1 0.6
      vertex -1 1.7 0.6
    endloop
  endfacet
  facet normal 1 0 0
    outer loop
      vertex -1 9.84315 0.6
      vertex -1 7.5 1.6
      vertex -1 7.5 0.6
    endloop
  endfacet
  facet normal 1 0 0
    outer loop
      vertex -1 4.5 0.6
      vertex -1 3.3 0.849999
      vertex -1 3.3 0.6
    endloop
  endfacet
  facet normal -1 0 0
    outer loop
      vertex 1 1.7 0.6
      vertex 1 1.1 0.6
      vertex 1 1.7 0.849999
    endloop
  endfacet
  facet normal -1 0 0
    outer loop
      vertex 1 3.3 0.849999
      vertex 1 4.5 0.6
      vertex 1 3.3 0.6
    endloop
  endfacet
  facet normal -1 0 0
    outer loop
      vertex 1 7.5 1.6
      vertex 1 9.84315 0.6
      vertex 1 7.5 0.6
    endloop
  endfacet
  facet normal -1 0 0
    outer loop
      vertex 1 7.5 1.6
      vertex 1 6.84315 3.6
      vertex 1 9.84315 0.6
    endloop
  endfacet
  facet normal -1 0 0
    outer loop
      vertex 1 4.5 1.6
      vertex 1 6.84315 3.6
      vertex 1 7.5 1.6
    endloop
  endfacet
  facet normal -1 0 0
    outer loop
      vertex 1 4.5 0.6
      vertex 1 3.3 0.849999
      vertex 1 4.5 1.6
    endloop
  endfacet
  facet normal -1 0 0
    outer loop
      vertex 1 1.1 3.6
      vertex 1 4.5 1.6
      vertex 1 3.3 0.849999
    endloop
  endfacet
  facet normal -1 0 0
    outer loop
      vertex 1 1.1 3.6
      vertex 1 3.3 0.849999
      vertex 1 1.7 0.849999
    endloop
  endfacet
  facet normal -1 0 0
    outer loop
      vertex 1 1.1 3.6
      vertex 1 1.7 0.849999
      vertex 1 1.1 0.6
    endloop
  endfacet
  facet normal -1 0 0
    outer loop
      vertex 1 4.5 1.6
      vertex 1 1.1 3.6
      vertex 1 6.84315 3.6
    endloop
  endfacet
  facet normal -0 0 1
    outer loop
      vertex -1 1.7 0.6
      vertex 1 1.1 0.6
      vertex 1 1.7 0.6
    endloop
  endfacet
  facet normal 0 0 1
    outer loop
      vertex 1 1.1 0.6
      vertex -1 1.7 0.6
      vertex -1 1.1 0.6
    endloop
  endfacet
  facet normal -0 0 1
    outer loop
      vertex -1 9.84315 0.6
      vertex 1 7.5 0.6
      vertex 1 9.84315 0.6
    endloop
  endfacet
  facet normal 0 0 1
    outer loop
      vertex 1 7.5 0.6
      vertex -1 9.84315 0.6
      vertex -1 7.5 0.6
    endloop
  endfacet
  facet normal -0 0 1
    outer loop
      vertex -1 4.5 0.6
      vertex 1 3.3 0.6
      vertex 1 4.5 0.6
    endloop
  endfacet
  facet normal 0 0 1
    outer loop
      vertex 1 3.3 0.6
      vertex -1 4.5 0.6
      vertex -1 3.3 0.6
    endloop
  endfacet
  facet normal 0 0 1
    outer loop
      vertex -1 6.84315 3.6
      vertex -3.75 1.1 3.6
      vertex -1 1.1 3.6
    endloop
  endfacet
  facet normal -0 0 1
    outer loop
      vertex -6.84315 6.84315 3.6
      vertex -3.75 1.1 3.6
      vertex -1 6.84315 3.6
    endloop
  endfacet
  facet normal 0 0 1
    outer loop
      vertex -6.84315 0.299999 3.6
      vertex -3.75 1.1 3.6
      vertex -6.84315 6.84315 3.6
    endloop
  endfacet
  facet normal 0 0 1
    outer loop
      vertex -3.75 1.1 3.6
      vertex -6.84315 0.299999 3.6
      vertex -3.75 0.299999 3.6
    endloop
  endfacet
  facet normal 0 0 1
    outer loop
      vertex 6.84315 6.84315 3.6
      vertex 3.75 1.1 3.6
      vertex 6.84315 0.299999 3.6
    endloop
  endfacet
  facet normal -0 0 1
    outer loop
      vertex 1 6.84315 3.6
      vertex 3.75 1.1 3.6
      vertex 6.84315 6.84315 3.6
    endloop
  endfacet
  facet normal 0 0 1
    outer loop
      vertex 3.75 1.1 3.6
      vertex 1 6.84315 3.6
      vertex 1 1.1 3.6
    endloop
  endfacet
  facet normal 0 0 1
    outer loop
      vertex 6.84315 0.299999 3.6
      vertex 3.75 1.1 3.6
      vertex 3.75 0.299999 3.6
    endloop
  endfacet
  facet normal 0 0 1
    outer loop
      vertex -3.75 -0.299999 3.6
      vertex -6.84315 -0.299999 3.6
      vertex -3.75 -1.1 3.6
    endloop
  endfacet
  facet normal 0 0 1
    outer loop
      vertex 3.75 -1.1 3.6
      vertex 6.84315 -0.299999 3.6
      vertex 3.75 -0.299999 3.6
    endloop
  endfacet
  facet normal 0 0 1
    outer loop
      vertex 6.84315 -0.299999 3.6
      vertex 3.75 -1.1 3.6
      vertex 6.84315 -6.84315 3.6
    endloop
  endfacet
  facet normal -0 0 1
    outer loop
      vertex -3.75 -1.1 3.6
      vertex 6.84315 -6.84315 3.6
      vertex 3.75 -1.1 3.6
    endloop
  endfacet
  facet normal 0 0 1
    outer loop
      vertex -6.84315 -6.84315 3.6
      vertex -3.75 -1.1 3.6
      vertex -6.84315 -0.299999 3.6
    endloop
  endfacet
  facet normal 0 0 1
    outer loop
      vertex -3.75 -1.1 3.6
      vertex -6.84315 -6.84315 3.6
      vertex 6.84315 -6.84315 3.6
    endloop
  endfacet
  facet normal 0 0 -1
    outer loop
      vertex -10.4431 3.3 0
      vertex 10.4431 10.4431 0
      vertex 10.4431 3.3 0
    endloop
  endfacet
  facet normal -0 0 -1
    outer loop
      vertex 10.4431 10.4431 0
      vertex -10.4431 3.3 0
      vertex -10.4431 10.4431 0
    endloop
  endfacet
  facet normal 0 0 -1
    outer loop
      vertex -10.4431 -10.4431 0
      vertex 10.4431 -7.3 0
      vertex 10.4431 -10.4431 0
    endloop
  endfacet
  facet normal -0 0 -1
    outer loop
      vertex 10.4431 -7.3 0
      vertex -10.4431 -10.4431 0
      vertex -10.4431 -7.3 0
    endloop
  endfacet
  facet normal 0 0 -1
    outer loop
      vertex -10.4431 -5.7 0
      vertex 10.4431 1.7 0
      vertex 10.4431 -5.7 0
    endloop
  endfacet
  facet normal -0 0 -1
    outer loop
      vertex 10.4431 1.7 0
      vertex -10.4431 -5.7 0
      vertex -10.4431 1.7 0
    endloop
  endfacet
  facet normal 0 0 -1
    outer loop
      vertex -8.84315 4.5 1.6
      vertex -1 7.5 1.6
      vertex -1 4.5 1.6
    endloop
  endfacet
  facet normal -0 0 -1
    outer loop
      vertex -1 7.5 1.6
      vertex -8.84315 4.5 1.6
      vertex -8.84315 7.5 1.6
    endloop
  endfacet
  facet normal 0 0 -1
    outer loop
      vertex 1 4.5 1.6
      vertex 8.84315 7.5 1.6
      vertex 8.84315 4.5 1.6
    endloop
  endfacet
  facet normal -0 0 -1
    outer loop
      vertex 8.84315 7.5 1.6
      vertex 1 4.5 1.6
      vertex 1 7.5 1.6
    endloop
  endfacet
  facet normal -0 0 1
    outer loop
      vertex -9.84315 7.5 0.599999
      vertex 9.84315 4.5 0.599999
      vertex 9.84315 7.5 0.599999
    endloop
  endfacet
  facet normal 0 0 1
    outer loop
      vertex 9.84315 4.5 0.599999
      vertex -9.84315 7.5 0.599999
      vertex -9.84315 4.5 0.599999
    endloop
  endfacet
  facet normal 0 1 0
    outer loop
      vertex 8.84315 4.5 1.6
      vertex 1 4.5 0.6
      vertex 1 4.5 1.6
    endloop
  endfacet
  facet normal 0 1 0
    outer loop
      vertex 1 4.5 0.6
      vertex 9.84315 4.5 0.599999
      vertex -1 4.5 0.6
    endloop
  endfacet
  facet normal 0 1 0
    outer loop
      vertex 9.84315 4.5 0.599999
      vertex 1 4.5 0.6
      vertex 8.84315 4.5 1.6
    endloop
  endfacet
  facet normal 0 1 -0
    outer loop
      vertex -1 4.5 0.6
      vertex -8.84315 4.5 1.6
      vertex -1 4.5 1.6
    endloop
  endfacet
  facet normal 0 1 0
    outer loop
      vertex -1 4.5 0.6
      vertex -9.84315 4.5 0.599999
      vertex -8.84315 4.5 1.6
    endloop
  endfacet
  facet normal 0 1 0
    outer loop
      vertex -9.84315 4.5 0.599999
      vertex -1 4.5 0.6
      vertex 9.84315 4.5 0.599999
    endloop
  endfacet
  facet normal 0 -1 0
    outer loop
      vertex -8.84315 7.5 1.6
      vertex -1 7.5 0.6
      vertex -1 7.5 1.6
    endloop
  endfacet
  facet normal 0 -1 -0
    outer loop
      vertex -1 7.5 0.6
      vertex -9.84315 7.5 0.599999
      vertex 1 7.5 0.6
    endloop
  endfacet
  facet normal 0 -1 0
    outer loop
      vertex -9.84315 7.5 0.599999
      vertex -1 7.5 0.6
      vertex -8.84315 7.5 1.6
    endloop
  endfacet
  facet normal 0 -1 0
    outer loop
      vertex 1 7.5 0.6
      vertex 8.84315 7.5 1.6
      vertex 1 7.5 1.6
    endloop
  endfacet
  facet normal 0 -1 0
    outer loop
      vertex 1 7.5 0.6
      vertex 9.84315 7.5 0.599999
      vertex 8.84315 7.5 1.6
    endloop
  endfacet
  facet normal 0 -1 0
    outer loop
      vertex 9.84315 7.5 0.599999
      vertex 1 7.5 0.6
      vertex -9.84315 7.5 0.599999
    endloop
  endfacet
endsolid OpenSCAD_Model
